<?xml version="1.0" encoding="UTF-8"?>
<svg width="449px" height="146px" viewBox="0 0 449 146" version="1.1" xmlns="http://www.w3.org/2000/svg" xmlns:xlink="http://www.w3.org/1999/xlink">
    <title>logo_color</title>
    <defs>
        <linearGradient x1="15.1725828%" y1="48.5674134%" x2="78.8292194%" y2="67.065474%" id="linearGradient-1">
            <stop stop-color="#66C3D1" offset="0%"></stop>
            <stop stop-color="#009EC5" offset="47.6240723%"></stop>
            <stop stop-color="#0095B0" offset="100%"></stop>
        </linearGradient>
        <linearGradient x1="-0.451272737%" y1="50.0004054%" x2="100.863627%" y2="50.0004054%" id="linearGradient-2">
            <stop stop-color="#FFFFFF" offset="0%"></stop>
            <stop stop-color="#064D7A" offset="100%"></stop>
        </linearGradient>
        <linearGradient x1="-0.451272737%" y1="50.0004054%" x2="100.863627%" y2="50.0004054%" id="linearGradient-3">
            <stop stop-color="#064D7A" stop-opacity="0.298474298" offset="0%"></stop>
            <stop stop-color="#064D7A" stop-opacity="0.960382876" offset="100%"></stop>
        </linearGradient>
    </defs>
    <g id="Page-1" stroke="none" stroke-width="1" fill="none" fill-rule="evenodd">
        <g id="Group-2" transform="translate(4.000000, 3.000000)">
            <g id="Group" transform="translate(102.000000, 80.000000)" fill="#656263" fill-rule="nonzero">
                <path d="M300.991094,51.5329562 L300.978487,60.1626304 L277.820227,60.1671354 L268.412311,60.1689373 L268.412311,0.166212534 L277.822478,0.166212534 L277.822478,51.4861048 L300.991094,51.5329562 Z M340,51.5329562 L339.987394,60.1626304 L316.829584,60.1671354 L307.421667,60.1689373 L307.421667,0.166212534 L316.831835,0.166212534 L316.831835,51.4861048 L340,51.5329562 Z" id="Shape"></path>
                <path d="M40.9772233,60.2587714 L40.9772233,46.6748439 C40.9772233,37.5405437 40.2349264,33.4640121 27.0388867,33.4640121 L9.25078552,33.4640121 L9.25078552,60.2587714 L0,60.2587714 L0,0.808900098 L9.25078552,0.808900098 L9.25078552,25.8094622 L20.8825065,25.8094622 L38.7597914,0.74528888 L49.6055244,0.74528888 L31.6030219,25.9321732 C48.6186478,26.7988196 50.2257567,33.2212969 50.2257567,43.8357986 L50.2257567,60.2587714 L40.9772233,60.2587714 L40.9772233,60.2587714 Z M57.3131611,60.2587714 L57.3131611,0.74528888 L66.5652979,0.74528888 L66.5652979,60.2587714 L57.3131611,60.2587714 L57.3131611,60.2587714 Z M83.8439707,0.74528888 L108.124468,0.74528888 L108.124468,8.15125876 L83.8444211,8.15125876 L83.8444211,44.0839275 C83.8444211,50.9963465 88.5310714,53.5976393 95.552714,53.5976393 C100.357375,53.5976393 104.677832,52.7269325 108.252838,51.8620906 L108.252838,59.0262477 C105.04943,60.0115448 99.1286214,61 94.4424216,61 C83.7119968,61 74.5909331,56.9365515 74.5909331,44.5770272 L74.5909331,0.74528888 L83.8439707,0.74528888 Z M245.663352,0.321665237 C243.928774,0.121357572 242.053213,5.68434189e-14 239.968655,5.68434189e-14 C229.487315,5.68434189e-14 222.954831,4.44511582 220.368503,9.13565364 C217.406522,3.58884566 211.23753,5.68434189e-14 199.64905,5.68434189e-14 C171.294928,5.68434189e-14 173.149319,20.2193444 173.149319,20.2193444 L173.149319,60.2587714 L182.390195,60.2587714 L182.390195,22.9627474 C182.390195,12.3532083 188.182183,7.90989705 197.92438,7.90989705 C212.106846,7.90989705 213.451809,12.8449546 213.451809,22.4827308 L213.451809,60.2587714 L222.711603,60.2587714 L222.711603,22.9627474 C222.711603,12.3532083 228.626556,7.90989705 238.243085,7.90989705 C241.276684,7.90989705 243.696806,8.15125876 245.663352,8.61052273 L245.663352,0.321665237 L245.663352,0.321665237 Z M140.081071,7.28280774 C123.196068,7.28280774 123.904133,13.0935346 123.904133,21.3702112 L123.904133,25.4336597 L156.137747,25.4336597 L156.137747,21.3702112 C156.137747,13.0939857 156.975083,7.28280774 140.081071,7.28280774 Z M140.081071,61 C115.674907,61 114.662806,52.2424045 114.662806,40.9917907 L114.662806,20.1309203 C114.662806,8.89203621 115.674907,0 140.081071,0 C164.366073,0 165.378623,8.89203621 165.378623,20.1309203 L165.378623,32.8545174 L123.904133,32.8545174 L123.904133,39.7673875 C123.904133,48.0287253 123.196068,53.7122297 140.081071,53.7122297 C156.235038,53.7122297 156.012529,48.1649706 156.137747,41.6233914 L165.378623,41.6233914 C165.378623,51.9902154 164.498947,61 140.081071,61 L140.081071,61 Z M252.724632,60.2019273 L252.724632,0.3992619 L262.100635,0.3992619 L262.100635,60.2019273 L252.724632,60.2019273 L252.724632,60.2019273 Z" id="Shape"></path>
            </g>
            <g id="Group-3">
                <path d="M112,38.4457217 C111.520394,40.0476408 111.137334,41.1620939 110.85082,41.7890813 C109.829048,44.0250568 108.696452,45.4228922 107.799605,46.3110939 C106.436867,47.6606951 104.534278,48.9928654 102.522392,49.8210952 C100.133427,50.8045569 97.6340002,51.1685864 96.3143474,51.2872974 C92.8430634,51.599561 86.0900304,51.1088845 77.9730087,48.7043227 C74.2803097,47.6104087 70.323126,46.2410094 66.3022443,44.4507052 C63.7838464,43.3293844 61.240006,42.0172635 58.6948114,40.6020593 C53.4284202,37.6737885 47.265627,33.0559498 44.7046585,28.939019 C43.7766631,27.4472035 42.9149414,26.0710398 42.2706872,24.7297482 C40.9957477,22.0754143 40.3537231,19.8465676 39.9969911,17.9751384 C39.7561265,16.7115543 39.5998652,15.5491748 39.6397341,14.7638378 C39.7001162,13.574434 39.6735062,11.2852318 40.9383691,9.4257847 C41.2252225,9.00408783 41.7503294,8.50831167 42.6533768,7.99346843 C42.7973965,7.91136029 43.0662845,7.80242637 43.4600409,7.66666667 C41.4890964,8.12155881 39.9821783,8.70793149 38.9392864,9.4257847 C36.6747168,10.9845547 30.0798505,15.8848271 19.1546875,24.1266018 L8.91631136,33.6329464 L3.85815727,40.3825283 L1.16493314,47.3227077 L2.34874362,53.8943815 C2.83158432,54.5607042 3.68718253,55.2370235 4.91553825,55.9233394 C9.55227371,58.5140101 14.9029473,60.5959198 19.6510759,62.354599 C24.271602,64.0660149 28.3196534,65.4779307 30.7183514,66.2836507 C50.1724133,72.8182482 64.6370003,74.5801861 77.0255549,73.2557499 C83.8111272,72.5303177 88.6111758,71.1794907 93.9239464,68.4097128 C97.9017534,66.3359093 100.596771,63.8095631 103.395759,60.4619627 C104.40951,59.2495137 105.909213,57.1099127 106.926799,55.1810585 C107.812189,53.5027842 108.721877,51.6059185 109.517819,49.263247 C109.983656,47.8921615 110.652695,45.7234562 111.27907,42.7282686 C111.456891,41.8779671 111.697201,40.4504514 112,38.4457217 Z" id="Path-2" fill="url(#linearGradient-1)" transform="translate(56.582467, 40.666667) scale(1, -1) translate(-56.582467, -40.666667) "></path>
                <path d="M3.890718,25.8333333 C2.57679301,27.6233878 1.899798,29.4908853 1.85973297,31.4358257 C1.83392047,32.6888825 1.93449327,33.1788148 2.00925209,33.7848878 C2.10854936,34.5898951 2.22771931,35.3894009 2.5824658,36.4028597 C3.36327332,38.6335127 4.93105308,42.0633988 6.73163476,44.5429122 C8.33776176,46.7546493 9.3670133,48.0867992 12.8912398,51.0136074 C17.9056748,55.1780076 24.6055291,60.1631985 34.2806147,64.0424128 C36.1039184,64.7734643 37.7638967,65.5483837 39.4979435,66.0507906 C39.4910698,67.0133097 39.5115,67.7111902 39.5596174,68.1407467 C39.719259,69.5659067 40.0358935,70.6266213 40.2046092,70.9979065 C40.3630966,71.346683 40.6803222,72.0408025 41.404733,72.6873928 C41.5910419,72.8536873 41.8941577,73.0857437 42.3377398,73.3484762 C42.4553854,73.4181574 42.6534219,73.5235023 42.9318495,73.6645109 C40.2665091,73.1840644 37.69293,72.0993315 35.2123934,70.4119304 C32.2840533,68.419908 26.4044352,64.2465094 21.120221,60.0528159 C19.6784871,58.9086174 18.0115903,57.5021234 16.3614097,56.0546039 L15.6018556,55.3844106 C12.8276351,52.9222626 10.2078604,50.4401131 8.91482528,49.0103706 C7.39218441,47.3267471 5.07047224,44.3109409 3.88657758,42.6306768 C2.12113833,40.1250449 1.09692179,38.2779086 0.221239781,34.5340425 C-0.246960806,32.532311 0.00419097361,30.1669261 1.20286971,28.2954349 C1.62198222,27.6410766 2.51793165,26.8203761 3.890718,25.8333333 Z" id="Combined-Shape" fill="url(#linearGradient-2)"></path>
                <path d="M3.890718,25.8333333 C2.57679301,27.6233878 1.899798,29.4908853 1.85973297,31.4358257 C1.83392047,32.6888825 1.93449327,33.1788148 2.00925209,33.7848878 C2.10854936,34.5898951 2.22771931,35.3894009 2.5824658,36.4028597 C3.36327332,38.6335127 4.93105308,42.0633988 6.73163476,44.5429122 C8.33776176,46.7546493 9.3670133,48.0867992 12.8912398,51.0136074 C17.9056748,55.1780076 24.6055291,60.1631985 34.2806147,64.0424128 C36.1039184,64.7734643 37.7638967,65.5483837 39.4979435,66.0507906 C39.4910698,67.0133097 39.5115,67.7111902 39.5596174,68.1407467 C39.719259,69.5659067 40.0358935,70.6266213 40.2046092,70.9979065 C40.3630966,71.346683 40.6803222,72.0408025 41.404733,72.6873928 C41.5910419,72.8536873 41.8941577,73.0857437 42.3377398,73.3484762 C42.4553854,73.4181574 42.6534219,73.5235023 42.9318495,73.6645109 C40.2665091,73.1840644 37.69293,72.0993315 35.2123934,70.4119304 C32.2840533,68.419908 26.4044352,64.2465094 21.120221,60.0528159 C19.6784871,58.9086174 18.0115903,57.5021234 16.3614097,56.0546039 L15.6018556,55.3844106 C12.8276351,52.9222626 10.2078604,50.4401131 8.91482528,49.0103706 C7.39218441,47.3267471 5.07047224,44.3109409 3.88657758,42.6306768 C2.12113833,40.1250449 1.09692179,38.2779086 0.221239781,34.5340425 C-0.246960806,32.532311 0.00419097361,30.1669261 1.20286971,28.2954349 C1.62198222,27.6410766 2.51793165,26.8203761 3.890718,25.8333333 Z" id="Combined-Shape-Copy" fill="#66C3D1"></path>
                <path d="M98.3143746,53.7401577 C98.0594908,58.17433 96.9428576,61.0136092 95.4396152,63.4793124 C92.5881041,68.1565225 87.448895,74 84.3071364,74 C81.082108,74 78.5607488,71.8175979 76.7430587,67.4527938 C76.0234005,65.8433792 75.5084121,64.6299473 75.1980935,63.8124982 C74.2373252,61.2816183 73.5063134,58.8778364 73.0946932,57.4646774 C71.3213908,51.3766427 70.5610618,46.083034 69.9392447,42.477866 C69.7450864,41.3521759 69.4088608,38.9483629 68.9628359,36.0565517 C68.6294077,33.8947639 68.2532226,31.4209322 67.728191,29.2179424 C67.0663939,26.4410956 66.1478277,24.5199119 65.2136116,22.4151701 C64.3434333,20.4547021 62.8722898,17.9715595 60.9457202,15.7065876 C59.6995433,14.2415196 58.7400469,13.0735422 56.6837444,11.7270936 C53.0779365,9.36604264 49.0671683,7.48593272 43.5371734,7.35903775 C40.1734679,7.2818519 37.5231718,8.6610062 34.3931272,9.9117405 C24.686287,13.7904961 17.964443,18.7750974 12.9335502,22.9390051 C9.3977568,25.8654673 8.36512715,27.1974596 6.75372867,29.4089352 C4.94723731,31.8881554 3.37431192,35.3176359 2.59094172,37.5480251 C2.23503091,38.5613641 2.11546984,39.3607753 2.01584666,40.1656875 C1.94084248,40.7716888 1.83993959,41.2615632 1.8658368,42.5144718 C1.90603333,44.4591822 2.58525031,46.3264588 3.90348774,48.1163016 C2.52619576,47.1293756 1.62730573,46.3087721 1.20681765,45.6544912 C0.00420472882,43.7832213 -0.247771356,41.4181161 0.221965912,39.4166213 C1.100522,35.673198 2.12810012,33.82628 3.89933372,31.3209445 C5.08711406,29.640879 7.41644632,26.6254295 8.94408465,24.9420051 C11.125872,22.5377226 17.0726755,17.1570455 21.1895397,13.9008656 C26.4910972,9.70766798 32.3900129,5.53476288 35.327964,3.54297613 C40.5455076,0.00573755789 46.1733486,-0.882868284 52.2114872,0.877158601 C53.9105965,1.3795628 55.5924644,1.99181523 57.2570909,2.7139159 C61.3367274,4.48362724 62.6636447,5.43651534 64.2628605,6.39492808 C68.292309,8.80978345 71.5088109,11.2457319 74.1228409,13.3839962 C75.902667,14.8398855 78.0500766,16.7459993 79.1088559,17.8988499 C84.2089446,23.4520756 88.3944778,28.3265777 92.297993,35.6527737 C94.9375443,40.6067367 96.5429611,44.831729 97.3347335,47.4114176 C98.126506,49.9911063 98.4779397,50.8946429 98.3143746,53.7401577 Z" id="Path-3" fill="url(#linearGradient-3)" transform="translate(49.176820, 37.000000) scale(1, -1) translate(-49.176820, -37.000000) "></path>
            </g>
        </g>
    </g>
</svg>